<svg xmlns="http://www.w3.org/2000/svg" xmlns:xlink="http://www.w3.org/1999/xlink" viewBox="0 0 1012.5 1012.5"><defs><linearGradient id="a"><stop offset="0" stop-color="#637ddf"/><stop offset=".23" stop-color="#649afa"/><stop offset="1" stop-color="#719efa"/></linearGradient><linearGradient xlink:href="#a" id="d" x1="213.96" x2="282.26" y1="338.62" y2="515.97" gradientTransform="translate(983.36 601.39)" gradientUnits="userSpaceOnUse"/><linearGradient xlink:href="#b" id="h" x1="-584.2" x2="-496.3" y1="782.34" y2="937.71" gradientTransform="matrix(1.91945 0 0 1.91945 1515.86 -1933.16)" gradientUnits="userSpaceOnUse"/><linearGradient id="b"><stop offset="0" stop-color="#415e9a"/><stop offset=".23" stop-color="#4a6baf"/><stop offset="1" stop-color="#5277c3"/></linearGradient><linearGradient xlink:href="#c" id="f" x1="200.6" x2="290.09" y1="351.41" y2="506.19" gradientTransform="matrix(1.91945 0 0 1.91945 -8.27 -1095.91)" gradientUnits="userSpaceOnUse"/><linearGradient id="c"><stop offset="0" stop-color="#699ad7"/><stop offset=".24" stop-color="#7eb1dd"/><stop offset="1" stop-color="#7ebae4"/></linearGradient></defs><g transform="translate(-132.58 958.04)"><path id="g" fill="url(#f)" fill-opacity="1" fill-rule="evenodd" stroke="none" stroke-dasharray="none" stroke-linecap="butt" stroke-linejoin="round" stroke-miterlimit="4" stroke-opacity="1" stroke-width="5.76" d="m450.28-434.16 234.56 406.3-107.8 1.01L514.43-136 451.36-27.43l-53.56-.02-27.43-47.4 89.85-154.49-63.78-111z" display="inline"/><use xlink:href="#g" width="100%" height="100%" transform="rotate(60 637.55 -444.52)"/><use xlink:href="#g" width="100%" height="100%" transform="rotate(-60 637.94 -444.35)"/><use xlink:href="#g" width="100%" height="100%" transform="rotate(180 638.14 -444.46)"/><path id="i" fill="url(#h)" fill-opacity="1" fill-rule="evenodd" stroke="none" stroke-dasharray="none" stroke-dashoffset="0" stroke-linecap="butt" stroke-linejoin="round" stroke-miterlimit="4" stroke-opacity="1" stroke-width="5.76" d="m450.28-434.16 234.56 406.3-107.8 1.01L514.43-136 451.36-27.43l-53.56-.02-27.43-47.4 89.85-154.49-63.78-111z" clip-rule="nonzero" color="#000" color-interpolation="sRGB" color-interpolation-filters="linearRGB" color-rendering="auto" display="inline" image-rendering="auto" overflow="visible" shape-rendering="auto" style="isolation:auto;mix-blend-mode:normal;solid-color:#000;solid-opacity:1" text-rendering="auto" visibility="visible"/><use xlink:href="#i" width="100%" height="100%" transform="rotate(120 637.99 -445.09)"/><use xlink:href="#i" width="100%" height="100%" transform="rotate(-120 637.89 -444.68)"/></g></svg>