<svg xmlns="http://www.w3.org/2000/svg" xmlns:xlink="http://www.w3.org/1999/xlink" xml:space="preserve" viewBox="0 0 1080 1080"><defs><linearGradient id="b"><stop offset="0" stop-color="#4de2fb"/><stop offset="1" stop-color="#28aee8"/></linearGradient><linearGradient id="a"><stop offset="0" stop-color="#1582d8"/><stop offset="1" stop-color="#0a64cc"/></linearGradient><linearGradient xlink:href="#a" id="f" x1="749.08" x2="738.25" y1="212.55" y2="843.02" gradientTransform="translate(-100)" gradientUnits="userSpaceOnUse"/><linearGradient xlink:href="#b" id="c" x1="1773.6" x2="2272.77" y1="939.29" y2="729.03" gradientTransform="matrix(1.05584 0 0 1.03536 938.45 209.63)" gradientUnits="userSpaceOnUse"/><filter id="g" width="1.17" height="1.18" x="-.08" y="-.08" color-interpolation-filters="sRGB"><feFlood flood-color="#000" flood-opacity=".38" result="flood"/><feGaussianBlur in="SourceGraphic" result="blur" stdDeviation="22.29"/><feOffset dx="6" dy="6" in="blur" result="offset"/><feComposite in="flood" in2="offset" operator="in" result="comp1"/><feComposite in="SourceGraphic" in2="comp1" result="comp2"/></filter><filter id="e" width="1.14" height="1.23" x="-.06" y="-.1" color-interpolation-filters="sRGB"><feFlood flood-color="#000" flood-opacity=".26" result="flood"/><feGaussianBlur in="SourceGraphic" result="blur" stdDeviation="21.05"/><feOffset dx="24.5" dy="14.31" in="blur" result="offset"/><feComposite in="flood" in2="offset" operator="out" result="comp1"/><feComposite in="comp1" in2="SourceGraphic" operator="atop" result="comp2"/></filter><filter id="d" width="1.24" height="1.36" x="-.1" y="-.15" color-interpolation-filters="sRGB"><feFlood flood-color="#000" flood-opacity=".26" result="flood"/><feGaussianBlur in="SourceGraphic" result="blur" stdDeviation="31.6"/><feOffset dx="32.46" dy="24.46" in="blur" result="offset"/><feComposite in="flood" in2="offset" operator="out" result="comp1"/><feComposite in="comp1" in2="SourceGraphic" operator="atop" result="comp2"/></filter></defs><path fill="#158fda" d="M346.66 920.7h557.76c65.26 0 118.16-51.88 118.16-115.87V412.92c0-34.05-17.39-65.3-47.54-82.17L683.22 168.02a128.03 128.03 0 0 0-125.11.21L227.42 354.69v449.09c0 64.57 53.39 116.92 119.24 116.92z"/><path fill="url(#c)" d="M2554.03 1199.34c4.32-48.82 35.8-91.3 81.8-110.4 0 0 419.03-230.77 626.78-350.18 64.3-36.96 75.5-111.9 75.5-111.9v512.74c0 89.7-74.15 162.42-165.62 162.42H2670.2c-59.83 0-109.98-44.33-116.18-102.68z" transform="matrix(.72108 0 0 .72108 -1384.48 -18.17)"/><path fill="#01459b" d="m1519.88 251.22-682.35 377.1 136.05 82.47c50.5 30.6 123.69 47.15 175.16 18.24l363.24-203.99c48.65-27.32 91.7-72.27 91.7-150.1 0-79.04-54.53-105.13-83.8-123.72z" filter="url(#d)" transform="matrix(.76135 0 0 .74658 -198.37 133)"/><path fill="#26aee9" d="M623.73 152.64a135.65 135.65 0 0 0-66.04 16.94L119.05 412.44l166.37 98.87 510.26-282.08-106-59.34a135.63 135.63 0 0 0-65.95-17.25z"/><path fill="#0078d3" d="m1305.64 128.9-670.2 377.83L854.6 639.56l683.27-377.1c-5.42-4.07-12.04-7.84-18-11.24z" filter="url(#e)" transform="matrix(.76135 0 0 .74658 -198.37 133)"/><path fill="url(#f)" d="m380.54 208.22 537.1 8.65a52.98 52.98 0 0 1 52.12 54.04L959.29 793.8a54.6 54.6 0 0 1-55.48 53.5l-531.12-8.55a55.66 55.66 0 0 1-54.75-56.76l10.48-523.5a51.3 51.3 0 0 1 52.12-50.26z" filter="url(#g)" transform="matrix(.76125 -.0121 .01234 .74649 -201.73 140.87)"/><path fill="#fff" d="M176.78 460.2c9.75-20.7 25.76-38.15 45.96-50.1a146.6 146.6 0 0 1 74.03-18.99c24.1-.88 48 4.58 69.06 15.8a115.05 115.05 0 0 1 46.28 46.44 146.68 146.68 0 0 1 17.1 69.11 154.64 154.64 0 0 1-15.22 72.83c-9.98 20.46-26 37.7-46.1 49.56a139.4 139.4 0 0 1-14.13 7.01 142.4 142.4 0 0 1-56.94 11.45 139.5 139.5 0 0 1-70.58-15.95 116.92 116.92 0 0 1-46.89-46.53 143.23 143.23 0 0 1-17.26-68.27 158.78 158.78 0 0 1 14.7-72.35zm51.78 115.1a74.5 74.5 0 0 0 26.85 32.07 71.07 71.07 0 0 0 41.3 11.18 74.41 74.41 0 0 0 43.67-12.91 71.1 71.1 0 0 0 25.01-32.9c5.37-14.58 7.88-29.98 7.4-45.43a132.4 132.4 0 0 0-8.43-45.77 72.73 72.73 0 0 0-25.31-33.46 70.23 70.23 0 0 0-43.7-12.11 73.29 73.29 0 0 0-41.87 12.6 75.04 75.04 0 0 0-26.27 33.19 124.81 124.81 0 0 0 1.37 93.6z"/></svg>