<svg xmlns="http://www.w3.org/2000/svg" xml:space="preserve" viewBox="0 0 48 48"><path fill="#972a00" d="M24 3a21 21 0 1 0 0 42 21 21 0 1 0 0-42Z"/><path fill="#e46e6e" d="M18.51 14.38c1.37.9 1.18 3.03-.12 3.9-3 2.65-3.25 7.61-.8 10.7a8.06 8.06 0 0 0 14.36-4.24c.19-2.6-.97-5.2-2.9-6.94-1.3-1.21-.45-3.71 1.34-3.8 1.7-.22 2.77 1.38 3.7 2.52a12.65 12.65 0 0 1-17.46 17.83 12.54 12.54 0 0 1-5.3-9.94 12.4 12.4 0 0 1 4.54-10.01 2.31 2.31 0 0 1 2.64-.02z"/><path fill="#e46e6e" d="M25.4 9.68a2.44 2.44 0 0 1 1.12 2.21c0 2.66.02 5.33 0 7.99-.02.94-.5 1.91-1.4 2.3-1.1.55-2.61.25-3.3-.8-.63-.94-.44-2.12-.47-3.18.01-2.15-.01-4.3.02-6.45.02-.95.56-1.9 1.47-2.26a2.66 2.66 0 0 1 2.56.19z"/></svg>