<?xml version="1.0" encoding="UTF-8" standalone="no"?>
<svg
   viewBox="0 0 1080 1080"
   version="1.1"
   id="svg13"
   sodipodi:docname="teams.svg"
   width="1080"
   height="1080"
   inkscape:version="1.4 (e7c3feb100, 2024-10-09)"
   xmlns:inkscape="http://www.inkscape.org/namespaces/inkscape"
   xmlns:sodipodi="http://sodipodi.sourceforge.net/DTD/sodipodi-0.dtd"
   xmlns="http://www.w3.org/2000/svg"
   xmlns:svg="http://www.w3.org/2000/svg">
  <defs
     id="defs13" />
  <sodipodi:namedview
     id="namedview13"
     pagecolor="#ffffff"
     bordercolor="#000000"
     borderopacity="0.25"
     inkscape:showpageshadow="2"
     inkscape:pageopacity="0.0"
     inkscape:pagecheckerboard="0"
     inkscape:deskcolor="#d1d1d1"
     inkscape:zoom="0.37765279"
     inkscape:cx="450.14893"
     inkscape:cy="635.50437"
     inkscape:window-width="1280"
     inkscape:window-height="758"
     inkscape:window-x="20"
     inkscape:window-y="20"
     inkscape:window-maximized="0"
     inkscape:current-layer="svg13" />
  <path
     fill="#5059c9"
     d="m 742.63879,418.66675 h 264.64491 c 25.0026,0 45.2709,20.2683 45.2709,45.27087 0,0 0,0 0,0 V 704.994 c 0,91.8909 -74.49192,166.38284 -166.38285,166.38284 v 0 h -0.7865 c -91.89091,0.0128 -166.39343,-74.4685 -166.40676,-166.35941 0,-0.008 0,-0.0156 0,-0.0238 V 442.32705 c 4.6e-4,-13.06738 10.59337,-23.6603 23.6603,-23.6603 z"
     id="path1"
     style="stroke-width:0.459682" />
  <circle
     fill="#5059c9"
     cx="921.50702"
     cy="263.79205"
     id="circle1"
     r="107.22085"
     style="stroke-width:0.459682" />
  <circle
     fill="#7b83eb"
     cx="587.93103"
     cy="216.13863"
     id="circle2"
     r="154.87471"
     style="stroke-width:0.459682" />
  <path
     fill="#7b83eb"
     d="M 794.43852,418.66675 H 357.59665 c -24.7047,0.61138 -44.24761,21.11365 -43.67438,45.81928 v 274.93814 c -3.44992,148.25622 113.84347,271.28603 262.09554,274.91423 148.25208,-3.6282 265.54503,-126.65801 262.09556,-274.91423 V 464.48603 c 0.57231,-24.70563 -18.97016,-45.2079 -43.67485,-45.81928 z"
     id="path2"
     style="stroke-width:0.459682" />
  <path
     opacity="0.1"
     d="M 599.84453,418.66675 V 803.947 c -0.11861,17.66788 -10.82506,33.54024 -27.16263,40.26723 -5.20176,2.2005 -10.79241,3.33453 -16.44053,3.33591 H 334.88974 c -3.09734,-7.86286 -5.95656,-15.72572 -8.33955,-23.8267 -8.34048,-27.34052 -12.59621,-55.76266 -12.62839,-84.34707 V 464.41431 c -0.57276,-24.66607 18.93799,-45.13618 43.60315,-45.74756 z"
     id="path3"
     style="stroke-width:0.459682" />
  <path
     opacity="0.2"
     d="m 576.01781,418.66675 v 409.10694 c 0,5.64813 -1.13541,11.23877 -3.33591,16.44054 -6.72698,16.33757 -22.59934,27.04447 -40.26722,27.16261 H 346.08851 c -4.05072,-7.86286 -7.86285,-15.72572 -11.19877,-23.8267 -3.33591,-8.10098 -5.95656,-15.72572 -8.33955,-23.8267 -8.34048,-27.34006 -12.59621,-55.76266 -12.62839,-84.34707 V 464.41431 c -0.57276,-24.66607 18.93799,-45.13618 43.60315,-45.74756 z"
     id="path4"
     style="stroke-width:0.459682" />
  <path
     opacity="0.2"
     d="m 576.01781,418.66675 v 361.45354 c -0.18156,24.00599 -19.59716,43.42157 -43.60313,43.60315 H 326.55064 c -8.34046,-27.34006 -12.59621,-55.76266 -12.62837,-84.34707 V 464.41431 c -0.57278,-24.66607 18.93797,-45.13618 43.60313,-45.74756 z"
     id="path5"
     style="stroke-width:0.459682" />
  <path
     opacity="0.2"
     d="m 552.19066,418.66675 v 361.45354 c -0.18158,24.00599 -19.59717,43.42157 -43.60314,43.60315 H 326.55064 c -8.34046,-27.34006 -12.59621,-55.76266 -12.62837,-84.34707 V 464.41431 c -0.57278,-24.66607 18.93797,-45.13618 43.60313,-45.74756 z"
     id="path6"
     style="stroke-width:0.459682" />
  <path
     opacity="0.1"
     d="m 599.84453,295.48206 v 75.0546 c -4.05073,0.23811 -7.86287,0.47669 -11.91359,0.47669 -4.05072,0 -7.86286,-0.23812 -11.91357,-0.47669 -8.0426,-0.53369 -16.01901,-1.80976 -23.82671,-3.81214 -48.2496,-11.42633 -88.11141,-45.26443 -107.22086,-91.01843 -3.28811,-7.68359 -5.84072,-15.66184 -7.62473,-23.82671 h 118.89585 c 24.04367,0.091 43.51212,19.55901 43.60361,43.60268 z"
     id="path7"
     style="stroke-width:0.459682" />
  <path
     opacity="0.2"
     d="m 576.01781,319.30877 v 51.22789 c -8.04259,-0.53369 -16.01899,-1.80976 -23.82669,-3.81214 -48.24961,-11.42633 -88.1114,-45.26443 -107.22084,-91.01843 h 87.4444 c 24.04321,0.091 43.51166,19.55946 43.60313,43.60268 z"
     id="path8"
     style="stroke-width:0.459682" />
  <path
     opacity="0.2"
     d="m 576.01781,319.30877 v 51.22789 c -8.04259,-0.53369 -16.01899,-1.80976 -23.82669,-3.81214 -48.24961,-11.42633 -88.1114,-45.26443 -107.22084,-91.01843 h 87.4444 c 24.04321,0.091 43.51166,19.55946 43.60313,43.60268 z"
     id="path9"
     style="stroke-width:0.459682" />
  <path
     opacity="0.2"
     d="m 552.19066,319.30877 v 47.41529 C 503.94106,355.29774 464.07925,321.45961 444.9698,275.70562 h 63.61772 c 24.04366,0.0915 43.51166,19.55993 43.60314,43.60315 z"
     id="path10"
     style="stroke-width:0.459682" />
  <linearGradient
     id="a"
     gradientUnits="userSpaceOnUse"
     x1="198.099"
     y1="1683.0726"
     x2="942.23438"
     y2="394.26071"
     gradientTransform="matrix(0.4596821,0,0,-0.4596821,28,1015.2575)">
    <stop
       offset="0"
       stop-color="#5a62c3"
       id="stop10" />
    <stop
       offset=".5"
       stop-color="#4d55bd"
       id="stop11" />
    <stop
       offset="1"
       stop-color="#3940ab"
       id="stop12" />
  </linearGradient>
  <path
     fill="url(#a)"
     d="M 71.674395,275.70562 H 508.5158 c 24.1209,0 43.6744,19.55395 43.6744,43.67439 v 436.84141 c 0,24.12091 -19.55397,43.67441 -43.6744,43.67441 H 71.674395 C 47.553497,799.89583 28,780.34186 28,756.22142 V 319.38001 c 0,-24.12044 19.553957,-43.67439 43.674395,-43.67439 z"
     id="path12"
     style="fill:url(#a);stroke-width:0.459682" />
  <path
     fill="#ffffff"
     d="M 405.0363,441.96942 H 317.7105 V 679.76158 H 262.07517 V 441.96942 H 175.1548 v -46.12864 h 229.8815 z"
     id="path13"
     style="stroke-width:0.459682" />
</svg>
