<svg xmlns="http://www.w3.org/2000/svg" xmlns:xlink="http://www.w3.org/1999/xlink" viewBox="0 0 1080 1080"><defs><path id="reuse-0" d="M576.02 319.3v51.24a130.77 130.77 0 0 1-23.83-3.82 154.87 154.87 0 0 1-107.22-91.01h87.44a43.77 43.77 0 0 1 43.6 43.6z" opacity=".2"/></defs><path fill="#5059c9" d="M742.64 418.67h264.64c25 0 45.27 20.27 45.27 45.27v241.05c0 91.9-74.49 166.39-166.38 166.39h-.78c-91.9.01-166.4-74.47-166.41-166.36V442.33a23.66 23.66 0 0 1 23.66-23.66z"/><circle cx="921.51" cy="263.79" r="107.22" fill="#5059c9"/><circle cx="587.93" cy="216.14" r="154.87" fill="#7b83eb"/><path fill="#7b83eb" d="M794.44 418.67H357.6a44.8 44.8 0 0 0-43.68 45.82v274.93c-3.45 148.26 113.85 271.29 262.1 274.92 148.25-3.63 265.54-126.66 262.1-274.92V464.5a44.8 44.8 0 0 0-43.68-45.82z"/><path d="M599.84 418.67v385.28a43.87 43.87 0 0 1-27.16 40.26 42.22 42.22 0 0 1-16.44 3.34H334.9a282.27 282.27 0 0 1-8.34-23.83 290.2 290.2 0 0 1-12.63-84.34V464.4a44.72 44.72 0 0 1 43.6-45.74z" opacity=".1"/><path d="M576.02 418.67v409.1a42.2 42.2 0 0 1-3.34 16.44 43.86 43.86 0 0 1-40.27 27.17H346.1a308.94 308.94 0 0 1-11.2-23.83 236.32 236.32 0 0 1-8.34-23.83 290.19 290.19 0 0 1-12.63-84.34V464.4a44.72 44.72 0 0 1 43.6-45.74z" opacity=".2"/><path d="M576.02 418.67v361.45a43.94 43.94 0 0 1-43.6 43.6H326.54a290.19 290.19 0 0 1-12.63-84.34V464.4a44.72 44.72 0 0 1 43.6-45.74z" opacity=".2"/><path d="M552.2 418.67v361.45a43.94 43.94 0 0 1-43.61 43.6H326.55a290.19 290.19 0 0 1-12.63-84.34V464.4a44.72 44.72 0 0 1 43.6-45.74z" opacity=".2"/><path d="M599.84 295.48v75.06c-4.05.23-7.86.47-11.9.47-4.06 0-7.87-.23-11.92-.47a130.77 130.77 0 0 1-23.83-3.82 154.87 154.87 0 0 1-107.22-91.01 132.4 132.4 0 0 1-7.62-23.83h118.9a43.77 43.77 0 0 1 43.6 43.6z" opacity=".1"/><use xlink:href="#reuse-0" opacity=".2"/><use xlink:href="#reuse-0" opacity=".2"/><path d="M552.2 319.3v47.42a154.87 154.87 0 0 1-107.23-91.01h63.62a43.77 43.77 0 0 1 43.6 43.6z" opacity=".2"/><linearGradient id="a" x1="198.1" x2="942.23" y1="1683.07" y2="394.26" gradientTransform="matrix(.45968 0 0 -.45968 28 1015.26)" gradientUnits="userSpaceOnUse"><stop offset="0" stop-color="#5a62c3"/><stop offset=".5" stop-color="#4d55bd"/><stop offset="1" stop-color="#3940ab"/></linearGradient><path fill="url(#a)" d="M71.67 275.7h436.85a43.67 43.67 0 0 1 43.67 43.68v436.84a43.67 43.67 0 0 1-43.67 43.68H71.67A43.67 43.67 0 0 1 28 756.22V319.38a43.67 43.67 0 0 1 43.67-43.67z"/><path fill="#fff" d="M405.04 441.97H317.7v237.8h-55.63v-237.8h-86.93v-46.13h229.89z"/></svg>