<svg xmlns="http://www.w3.org/2000/svg" xmlns:xlink="http://www.w3.org/1999/xlink" id="svg9" version="1.1" viewBox="0 0 1080 1080"><defs id="defs6"><radialGradient id="c" cx="410.2" cy="853.35" r="85" gradientTransform="rotate(45 546.82 785.35)" gradientUnits="userSpaceOnUse"><stop id="stop3" offset=".5" stop-opacity=".13"/><stop id="stop4" offset=".99" stop-opacity="0"/></radialGradient><radialGradient xlink:href="#c" id="e" cx="1051.13" cy="1265.85" r="85" gradientTransform="rotate(-135 769.6 767.5)"/><radialGradient xlink:href="#c" id="h" cx="27.61" cy="2001.37" r="85" gradientTransform="scale(1 -1) rotate(45 2979.23 860.25)"/><radialGradient xlink:href="#c" id="radialGradient9" cx="410.2" cy="853.35" r="85" gradientTransform="rotate(45 546.82 785.35)" gradientUnits="userSpaceOnUse"/><linearGradient id="a" x1="700.77" x2="749.77" y1="597.02" y2="597.02" gradientTransform="matrix(.867 0 0 1.307 86.6 -142.3)" gradientUnits="userSpaceOnUse"><stop id="stop1" offset="0" stop-opacity=".13"/><stop id="stop2" offset=".99" stop-opacity="0"/></linearGradient><linearGradient xlink:href="#a" id="f" x1="1880.8" x2="1929.8" y1="34.29" y2="34.29" gradientTransform="matrix(.9058 0 0 -.83163 -1333.5 -674.79)"/><linearGradient id="i" x1="308.38" x2="919.32" y1="811.63" y2="200.69" gradientTransform="scale(1.04476) rotate(-45 .91 -5.21)" gradientUnits="userSpaceOnUse"><stop id="stop5" offset="0" stop-color="#2987e6"/><stop id="stop6" offset=".99" stop-color="#58c1f5"/></linearGradient><linearGradient xlink:href="#a" id="linearGradient9" x1="700.77" x2="749.77" y1="597.02" y2="597.02" gradientTransform="matrix(.9058 0 0 1.3655 346.96 -873.53)" gradientUnits="userSpaceOnUse"/><mask id="b" width="170" height="205.21" x="317.14" y="651.83" maskUnits="userSpaceOnUse"><g id="g2" transform="translate(-8.06 -116.52)"><path id="rect2" d="M367.7 870.95h85v85h-85z" class="a" transform="rotate(45 410.2 913.45)"/></g></mask><mask id="d" width="205.21" height="205.21" x="837.92" y="95.83" maskUnits="userSpaceOnUse"><g id="g4" transform="translate(-8.06 -116.52)"><path id="rect4" d="M876.04 260.01h170v85h-170z" class="a" transform="rotate(-135 961.04 302.51)"/></g></mask><mask id="g" width="205.21" height="205.21" x="-35.21" y="299.48" maskUnits="userSpaceOnUse"><g id="g5" transform="translate(-8.06 -116.52)"><path id="rect5" d="M-21.99 463.66h170v85h-170z" class="a" transform="rotate(-45 63.01 506.16)"/></g></mask><style id="style1">.a{fill:#fff}</style></defs><path id="rect6" fill="url(#linearGradient9)" stroke-width="1.04" d="M981.98-443.01h44.4v769.46h-44.4z" transform="rotate(45)"/><g id="g6" mask="url(#b)" transform="matrix(1.04476 0 0 1.04476 12 124)"><circle id="circle6" cx="402.14" cy="736.83" r="85" fill="url(#radialGradient9)"/></g><g id="g7" mask="url(#d)" transform="matrix(1.04476 0 0 1.04476 12 124)"><circle id="circle7" cx="922.92" cy="216.04" r="85" fill="url(#e)"/></g><path id="rect7" fill="url(#f)" stroke-width="1.04" d="M370.85-937.58h44.4v468.57h-44.4z" transform="rotate(135)"/><g id="g8" mask="url(#g)" transform="matrix(1.04476 0 0 1.04476 12 124)"><circle id="circle8" cx="85" cy="419.69" r="85" fill="url(#h)"/></g><rect id="rect8" width="300.89" height="601.78" x="-370.85" y="380.21" fill="#195abd" stroke-width="1.04" rx="44.4" transform="rotate(-45)"/><rect id="rect9" width="300.89" height="902.67" x="681.09" y="-531.82" fill="url(#i)" stroke-width="1.04" rx="44.4" transform="rotate(45)"/></svg>